
        <svg xmlns="http://www.w3.org/2000/svg" xmlns:xlink="http://www.w3.org/1999/xlink" version="1.1" width="3181.8181818181824" height="827.2727272727274" viewBox="0 0 3181.8181818181824 827.2727272727274">
			
			<g transform="scale(9.090909090909092) translate(10, 10)">
				<defs id="SvgjsDefs1251"/><g id="SvgjsG1252" featureKey="symbolContainer" transform="matrix(1,0,0,1,0,0)" fill="#fff"><rect width="110" height="71" rx="8"/></g><g id="SvgjsG1253" featureKey="symbolFeature-0" transform="matrix(0.7692307692307693,0,0,0.7692307692307693,16.53846153846154,-3.0769230769230766)" fill="#000000"><path xmlns="http://www.w3.org/2000/svg" d="M69,23.5c-7.088,0-13.529,2.803-18.29,7.351c-0.241,0.23-0.478,0.464-0.71,0.703c-1.345,1.385-2.53,2.921-3.549,4.571  c0,0-0.009-0.003-0.009-0.003s-1.721,2.616-2.477,5.209l0,0.016C43.022,44.061,42.5,46.969,42.5,50c0,3.823,0.82,7.457,2.284,10.744  c1.312-1.68,2.314-3.606,2.95-5.691c0.595-1.467,1.174-3.165,1.616-5.053c0.458-1.958,1.551-5.481,3.002-8.272  c0.727-1.542,1.395-2.35,2.383-3.495c0.216-0.283,0.476-0.529,0.718-0.79C58.834,33.798,63.647,31.5,69,31.5  c10.201,0,18.5,8.299,18.5,18.5S79.201,68.5,69,68.5c-5.353,0-10.166-2.298-13.547-5.943c-1.253,2.43-2.854,4.649-4.743,6.593  C55.471,73.697,61.912,76.5,69,76.5c14.612,0,26.5-11.888,26.5-26.5S83.612,23.5,69,23.5z"/><path xmlns="http://www.w3.org/2000/svg" d="M50.126,68.307c1.291-1.35,2.437-2.835,3.423-4.431l0.007,0.003c0,0,1.722-2.617,2.478-5.209v-0.012  C56.977,55.942,57.5,53.032,57.5,50c0-3.796-0.81-7.403-2.254-10.67l-0.003-0.074c0,0-0.012,0.017-0.018,0.025  c-0.003-0.008-0.006-0.017-0.01-0.024c-0.333,0.527-0.653,1.015-0.96,1.477c-0.691,1.144-1.275,2.343-1.73,3.597  c-0.688,1.601-1.373,3.514-1.877,5.67c-0.441,1.884-1.489,5.21-2.845,7.944c-0.794,1.729-1.552,2.625-2.501,3.776  c-0.205,0.249-0.526,0.591-0.757,0.837C41.165,66.202,36.352,68.5,31,68.5c-10.201,0-18.5-8.299-18.5-18.5S20.799,31.5,31,31.5  c5.352,0,10.166,2.298,13.547,5.943c1.253-2.43,2.855-4.649,4.743-6.592C44.53,26.303,38.088,23.5,31,23.5  C16.388,23.5,4.5,35.388,4.5,50S16.388,76.5,31,76.5c7.048,0,13.456-2.773,18.208-7.277c0,0.001,0.001,0.002,0.001,0.002  c0.014-0.013,0.033-0.032,0.048-0.046c0.011-0.011,0.022-0.021,0.033-0.03c0,0,0-0.001-0.001-0.001  c0.207-0.199,0.492-0.483,0.709-0.703C49.999,68.445,50,68.445,50,68.446c0.014-0.015,0.026-0.03,0.04-0.045  c0.03-0.03,0.065-0.065,0.09-0.091C50.128,68.31,50.127,68.308,50.126,68.307z"/></g><g id="SvgjsG1254" featureKey="nameFeature-0" transform="matrix(1.4434180392896205,0,0,1.4434180392896205,124.80369519621243,-6.3210164714754455)" fill="#fff"><path d="M6.08 40 c-1.4 0 -2.48 -1.08 -2.48 -2.48 l0 -23.04 c0 -1.4 1.08 -2.48 2.48 -2.48 l16.28 0 c1.2 0 2.2 1 2.2 2.2 c0 1.24 -1 2.2 -2.2 2.2 l-13.84 0 l0 7.28 l12.04 0 c1.2 0 2.2 1 2.2 2.24 c0 1.2 -1 2.16 -2.2 2.16 l-12.04 0 l0 7.52 l14.04 0 c1.2 0 2.2 1 2.2 2.2 c0 1.24 -1 2.2 -2.2 2.2 l-16.48 0 z M35.92 40.44 c-3.96 0 -7.48 -2.28 -7.48 -6.52 l0 -0.08 c0 -4.56 3.56 -6.8 8.72 -6.8 c2.36 0 4.04 0.36 5.68 0.88 l0 -0.52 c0 -3 -1.84 -4.6 -5.24 -4.6 c-1.84 0 -3.36 0.32 -4.68 0.84 c-0.28 0.08 -0.52 0.12 -0.76 0.12 c-1.12 0 -2.04 -0.88 -2.04 -2 c0 -0.88 0.6 -1.64 1.32 -1.92 c2 -0.76 4.04 -1.24 6.8 -1.24 c3.16 0 5.52 0.84 7 2.36 c1.56 1.52 2.28 3.76 2.28 6.52 l0 10.4 c0 1.32 -1.04 2.32 -2.36 2.32 c-1.4 0 -2.36 -0.96 -2.36 -2.04 l0 -0.8 c-1.44 1.72 -3.64 3.08 -6.88 3.08 z M37.28 36.92 c3.2 0 5.64 -1.84 5.64 -4.52 l0 -1.44 c-1.24 -0.48 -2.88 -0.84 -4.8 -0.84 c-3.12 0 -4.96 1.32 -4.96 3.52 l0 0.08 c0 2.04 1.8 3.2 4.12 3.2 z M60.56 40.4 c-2.68 0 -5.6 -0.84 -8.04 -2.52 c-0.52 -0.28 -0.92 -0.88 -0.92 -1.68 c0 -1.08 0.84 -1.96 1.96 -1.96 c0.4 0 0.76 0.12 1.04 0.28 c2.04 1.36 4.16 2.04 6.08 2.04 c2.08 0 3.28 -0.88 3.28 -2.28 l0 -0.08 c0 -1.64 -2.24 -2.2 -4.72 -2.96 c-3.12 -0.88 -6.6 -2.16 -6.6 -6.2 l0 -0.08 c0 -4 3.32 -6.44 7.52 -6.44 c2.24 0 4.6 0.64 6.64 1.72 c0.68 0.36 1.16 1 1.16 1.84 c0 1.12 -0.88 1.96 -2 1.96 c-0.4 0 -0.64 -0.08 -0.96 -0.24 c-1.72 -0.88 -3.48 -1.44 -4.96 -1.44 c-1.88 0 -2.96 0.88 -2.96 2.08 l0 0.08 c0 1.56 2.28 2.2 4.76 3 c3.08 0.96 6.56 2.36 6.56 6.16 l0 0.08 c0 4.44 -3.44 6.64 -7.84 6.64 z M77.19999999999999 46.519999999999996 c-1.36 0 -2.36 -0.2 -3.36 -0.6 c-0.72 -0.24 -1.52 -0.84 -1.52 -2 c0 -1.2 0.92 -2 1.96 -2 c0.4 0 0.64 0.08 0.88 0.16 c0.56 0.16 1 0.28 1.68 0.28 c1.44 0 2.2 -0.6 3 -2.24 l0.16 -0.44 l-7.84 -17.52 c-0.16 -0.36 -0.28 -0.84 -0.28 -1.16 c0 -1.36 1.04 -2.36 2.4 -2.36 c1.24 0 1.92 0.72 2.36 1.84 l5.68 14.04 l5.28 -14.04 c0.4 -1 1.08 -1.84 2.32 -1.84 c1.28 0 2.32 1 2.32 2.28 c0 0.4 -0.12 0.92 -0.2 1.16 l-7.72 18.52 c-1.8 4.32 -3.72 5.92 -7.12 5.92 z M102.92 40.44 c-3.96 0 -7.48 -2.28 -7.48 -6.52 l0 -0.08 c0 -4.56 3.56 -6.8 8.72 -6.8 c2.36 0 4.04 0.36 5.68 0.88 l0 -0.52 c0 -3 -1.84 -4.6 -5.24 -4.6 c-1.84 0 -3.36 0.32 -4.68 0.84 c-0.28 0.08 -0.52 0.12 -0.76 0.12 c-1.12 0 -2.04 -0.88 -2.04 -2 c0 -0.88 0.6 -1.64 1.32 -1.92 c2 -0.76 4.04 -1.24 6.8 -1.24 c3.16 0 5.52 0.84 7 2.36 c1.56 1.52 2.28 3.76 2.28 6.52 l0 10.4 c0 1.32 -1.04 2.32 -2.36 2.32 c-1.4 0 -2.36 -0.96 -2.36 -2.04 l0 -0.8 c-1.44 1.72 -3.64 3.08 -6.88 3.08 z M104.28 36.92 c3.2 0 5.64 -1.84 5.64 -4.52 l0 -1.44 c-1.24 -0.48 -2.88 -0.84 -4.8 -0.84 c-3.12 0 -4.96 1.32 -4.96 3.52 l0 0.08 c0 2.04 1.8 3.2 4.12 3.2 z M120.32000000000001 44.2 l0 -23.12 c0 -1.36 1.04 -2.44 2.4 -2.44 s2.44 1.08 2.44 2.44 l0 1.32 c1.56 -2.2 3.76 -3.96 7.2 -3.96 c4.96 0 9.8 3.92 9.8 10.96 l0 0.08 c0 7 -4.8 10.96 -9.8 10.96 c-3.52 0 -5.72 -1.76 -7.2 -3.72 l0 7.48 c0 1.36 -1.08 2.4 -2.44 2.4 c-1.32 0 -2.4 -1.04 -2.4 -2.4 z M131.2 36.24 c3.32 0 6.04 -2.6 6.04 -6.76 l0 -0.08 c0 -4.08 -2.76 -6.76 -6.04 -6.76 s-6.16 2.72 -6.16 6.76 l0 0.08 c0 4.04 2.88 6.76 6.16 6.76 z"/></g>
			</g>
		</svg>
	